<svg width="168" height="51" viewBox="0 0 168 51" fill="none" xmlns="http://www.w3.org/2000/svg">
<path d="M166.887 44.3548C166.887 44.9813 166.763 45.6017 166.523 46.1805C166.283 46.7592 165.932 47.285 165.488 47.7278C165.045 48.1705 164.519 48.5216 163.94 48.7609C163.36 49.0002 162.74 49.123 162.113 49.1224H5.88938C4.62318 49.1237 3.4083 48.6222 2.51191 47.7281C1.61552 46.8341 1.11103 45.6207 1.10938 44.3548V6.33529C1.11102 5.06885 1.61532 3.85483 2.51153 2.95979C3.40774 2.06475 4.62261 1.56185 5.88938 1.56152H162.112C162.739 1.56152 163.36 1.68501 163.939 1.92493C164.518 2.16485 165.045 2.5165 165.488 2.9598C165.931 3.4031 166.283 3.92937 166.523 4.50854C166.762 5.08771 166.886 5.70844 166.886 6.33529L166.887 44.3548Z" fill="white"/>
<path d="M162.112 50.2309H5.88816C4.32835 50.2306 2.83237 49.6117 1.72848 48.51C0.624596 47.4082 0.0029679 45.9137 0 44.3543L0 6.33599C0.00230752 4.77582 0.623526 3.28026 1.72738 2.17741C2.83123 1.07455 4.32758 0.454442 5.88816 0.453125L162.111 0.453125C163.671 0.455099 165.167 1.07541 166.271 2.17813C167.374 3.28085 167.996 4.77602 167.999 6.33599V44.3543C168.001 47.5957 165.355 50.2309 162.112 50.2309Z" fill="#A6A6A6"/>
<path d="M166.887 44.3548C166.887 44.9813 166.763 45.6017 166.523 46.1805C166.283 46.7592 165.932 47.285 165.488 47.7278C165.045 48.1705 164.519 48.5216 163.94 48.7609C163.36 49.0002 162.74 49.123 162.113 49.1224H5.88938C4.62318 49.1237 3.4083 48.6222 2.51191 47.7281C1.61552 46.8341 1.11103 45.6207 1.10938 44.3548V6.33529C1.11102 5.06885 1.61532 3.85483 2.51153 2.95979C3.40774 2.06475 4.62261 1.56185 5.88938 1.56152H162.112C162.739 1.56152 163.36 1.68501 163.939 1.92493C164.518 2.16485 165.045 2.5165 165.488 2.9598C165.931 3.4031 166.283 3.92937 166.523 4.50854C166.762 5.08771 166.886 5.70844 166.886 6.33529L166.887 44.3548Z" fill="#1A2921"/>
<path d="M37.5113 25.0804C37.4752 21.0685 40.7971 19.1166 40.949 19.0258C39.0677 16.2835 36.1516 15.9088 35.1269 15.8789C32.6777 15.6213 30.302 17.3441 29.0544 17.3441C27.7819 17.3441 25.8607 15.9038 23.7901 15.9462C21.1255 15.9872 18.6328 17.5295 17.2656 19.9245C14.4442 24.8078 16.5485 31.984 19.2516 35.9312C20.6038 37.8656 22.1839 40.0229 24.252 39.9469C26.2753 39.8648 27.0311 38.6586 29.4728 38.6586C31.892 38.6586 32.6018 39.9469 34.711 39.8984C36.8825 39.8648 38.2496 37.9565 39.5545 36.0059C41.1171 33.7915 41.7447 31.6081 41.7696 31.4961C41.7198 31.4786 37.5536 29.8878 37.5113 25.0804ZM33.5269 13.2823C34.6151 11.9218 35.3597 10.0708 35.153 8.19238C33.5779 8.26209 31.6082 9.28157 30.4739 10.6123C29.4703 11.7848 28.5738 13.7068 28.8054 15.5142C30.5747 15.6462 32.3913 14.6217 33.5269 13.2823Z" fill="white"/>
<path d="M162.112 0.453125H78.4336L111.209 50.2309H162.112C163.672 50.2296 165.168 49.6099 166.272 48.5075C167.375 47.4052 167.997 45.9103 168 44.3506V6.33599C167.997 4.77592 167.376 3.28056 166.272 2.17777C165.168 1.07498 163.672 0.454771 162.112 0.453125Z" fill="url(#paint0_linear_6802_40267)"/>
<path d="M66.8209 39.6693H63.9933L62.4443 34.8034H57.0605L55.585 39.6693H52.832L58.1674 23.1036H61.4619L66.8209 39.6693ZM61.9774 32.7619L60.5767 28.4363C60.4285 27.9944 60.1496 26.9537 59.7412 25.3156H59.6914C59.527 26.0202 59.2643 27.0608 58.9045 28.4363L57.5274 32.7619H61.9774ZM80.5147 33.5499C80.5147 35.5814 79.9631 37.1872 78.8587 38.366C77.8701 39.4153 76.6412 39.9394 75.1757 39.9394C73.5931 39.9394 72.4551 39.3755 71.764 38.2452V44.5127H69.1095V31.6503C69.1095 30.3744 69.0758 29.0662 69.0111 27.7243H71.3457L71.4939 29.6176H71.5437C72.4289 28.1911 73.7724 27.4778 75.5754 27.4778C76.9848 27.4778 78.1615 28.0342 79.1028 29.1483C80.0428 30.2649 80.5147 31.7312 80.5147 33.5499ZM77.8103 33.647C77.8103 32.4843 77.5489 31.5259 77.0234 30.7703C76.4494 29.9848 75.6787 29.5915 74.7125 29.5915C74.0576 29.5915 73.4624 29.8105 72.9307 30.2425C72.3978 30.6782 72.0492 31.247 71.8861 31.9516C71.8133 32.2151 71.7719 32.4862 71.7628 32.7594V34.7523C71.7628 35.62 72.0293 36.3531 72.5622 36.9531C73.0951 37.5506 73.7874 37.8506 74.639 37.8506C75.6389 37.8506 76.4171 37.4635 76.9736 36.6955C77.5314 35.9249 77.8103 34.9092 77.8103 33.647ZM94.2571 33.5499C94.2571 35.5814 93.7055 37.1872 92.6011 38.366C91.6112 39.4153 90.3835 39.9394 88.9168 39.9394C87.3342 39.9394 86.1962 39.3755 85.5052 38.2452V44.5127H82.8506V31.6503C82.8506 30.3744 82.817 29.0662 82.7522 27.7243H85.0868L85.235 29.6176H85.2848C86.1688 28.1911 87.5123 27.4778 89.3165 27.4778C90.7247 27.4778 91.9013 28.0342 92.8451 29.1483C93.784 30.2649 94.2571 31.7312 94.2571 33.5499ZM91.5515 33.647C91.5515 32.4843 91.2887 31.5259 90.7633 30.7703C90.1893 29.9848 89.4211 29.5915 88.4549 29.5915C87.7999 29.5915 87.2048 29.8105 86.6706 30.2425C86.1377 30.6782 85.7903 31.247 85.6272 31.9516C85.5463 32.2802 85.5027 32.5478 85.5027 32.7594V34.7523C85.5027 35.62 85.7704 36.3531 86.3008 36.9531C86.8337 37.5494 87.526 37.8506 88.3801 37.8506C89.3812 37.8506 90.1594 37.4635 90.7147 36.6955C91.2726 35.9249 91.5515 34.9092 91.5515 33.647ZM109.622 35.0225C109.622 36.4328 109.129 37.5793 108.149 38.4643C107.071 39.4303 105.565 39.9145 103.635 39.9145C101.852 39.9145 100.423 39.5709 99.3447 38.8826L99.9585 36.6706C101.123 37.3602 102.401 37.7037 103.793 37.7037C104.795 37.7037 105.573 37.4772 106.128 37.0278C106.685 36.5772 106.966 35.9747 106.966 35.2229C106.966 34.5494 106.733 33.9856 106.276 33.5262C105.817 33.0681 105.057 32.6412 103.99 32.2491C101.089 31.1674 99.6373 29.5852 99.6373 27.5039C99.6373 26.1446 100.15 25.0318 101.174 24.1617C102.197 23.2928 103.554 22.8584 105.243 22.8584C106.751 22.8584 108.007 23.121 109.004 23.6451L108.338 25.8085C107.399 25.3007 106.34 25.0467 105.154 25.0467C104.218 25.0467 103.483 25.277 102.958 25.7351C102.516 26.1446 102.292 26.6438 102.292 27.2363C102.292 27.8898 102.547 28.4326 103.055 28.8583C103.496 29.2504 104.3 29.6773 105.463 30.1354C106.89 30.7105 107.938 31.3802 108.61 32.1495C109.286 32.9188 109.622 33.8785 109.622 35.0225ZM118.421 29.7159H115.495V35.5154C115.495 36.9905 116.011 37.7261 117.044 37.7261C117.518 37.7261 117.912 37.6863 118.223 37.6029L118.297 39.6182C117.774 39.8137 117.085 39.912 116.232 39.912C115.184 39.912 114.365 39.5921 113.773 38.9523C113.184 38.3124 112.888 37.2407 112.888 35.732V29.711H111.145V27.7193H112.888V25.5322L115.495 24.7455V27.7193H118.421V29.7159ZM131.597 33.5984C131.597 35.4345 131.072 36.9419 130.023 38.1207C128.926 39.3344 127.467 39.9394 125.648 39.9394C123.892 39.9394 122.496 39.3581 121.455 38.1967C120.415 37.0328 119.894 35.5664 119.894 33.7976C119.894 31.9466 120.432 30.4304 121.504 29.2516C122.579 28.0716 124.025 27.4815 125.844 27.4815C127.598 27.4815 129.006 28.0641 130.072 29.2267C131.09 30.3545 131.597 31.8109 131.597 33.5984ZM128.845 33.6594C128.845 32.5653 128.609 31.6267 128.134 30.8412C127.578 29.8927 126.781 29.4184 125.749 29.4184C124.685 29.4184 123.87 29.8927 123.314 30.8412C122.839 31.6267 122.602 32.5814 122.602 33.7092C122.602 34.8046 122.839 35.7457 123.314 36.5287C123.888 37.4772 124.689 37.9515 125.726 37.9515C126.741 37.9515 127.537 37.4672 128.112 36.505C128.6 35.7009 128.845 34.7561 128.845 33.6594ZM140.229 30.0583C139.953 30.0084 139.673 29.9838 139.393 29.9848C138.459 29.9848 137.737 30.3358 137.229 31.0429C136.788 31.6653 136.566 32.452 136.566 33.4018V39.6693H133.912V31.486C133.914 30.2321 133.888 28.9783 133.834 27.7255H136.147L136.244 30.011H136.317C136.599 29.2255 137.039 28.5919 137.644 28.1176C138.198 27.7032 138.871 27.4788 139.563 27.4778C139.808 27.4778 140.03 27.4952 140.227 27.5264L140.229 30.0583ZM152.102 33.1316C152.108 33.5351 152.076 33.9382 152.004 34.3353H144.041C144.071 35.5154 144.457 36.4191 145.196 37.0415C145.867 37.5967 146.735 37.8755 147.801 37.8755C148.98 37.8755 150.056 37.6888 151.023 37.3116L151.439 39.1527C150.309 39.6456 148.974 39.8908 147.434 39.8908C145.581 39.8908 144.127 39.3456 143.068 38.2577C142.012 37.1685 141.483 35.7046 141.483 33.871C141.483 32.0711 141.975 30.5711 142.96 29.3749C143.991 28.0977 145.384 27.4591 147.137 27.4591C148.859 27.4591 150.163 28.0977 151.048 29.3749C151.749 30.3869 152.102 31.6416 152.102 33.1316ZM149.57 32.4433C149.589 31.6553 149.415 30.9769 149.055 30.4031C148.595 29.6637 147.888 29.2952 146.941 29.2952C146.073 29.2952 145.365 29.6549 144.828 30.3769C144.386 30.9508 144.123 31.6404 144.042 32.4408L149.57 32.4433Z" fill="white"/>
<path d="M56.2916 17.2467C55.5532 17.2467 54.9145 17.2106 54.3828 17.1496V9.14063C55.1264 9.02579 55.8778 8.96919 56.6303 8.97134C59.6746 8.97134 61.0766 10.4688 61.0766 12.9098C61.0766 15.7256 59.4206 17.2467 56.2916 17.2467ZM56.7373 9.99829C56.3264 9.99829 55.9766 10.0232 55.6864 10.0829V16.1712C55.8433 16.1961 56.1447 16.2073 56.568 16.2073C58.5627 16.2073 59.6982 15.072 59.6982 12.9459C59.6982 11.0501 58.671 9.99829 56.7373 9.99829ZM65.4457 17.3077C63.7299 17.3077 62.618 16.0268 62.618 14.2878C62.618 12.4754 63.7536 11.1833 65.5428 11.1833C67.2337 11.1833 68.3705 12.4032 68.3705 14.192C68.3705 16.0268 67.1988 17.3077 65.4457 17.3077ZM65.4955 12.1368C64.5529 12.1368 63.949 13.0181 63.949 14.2505C63.949 15.4592 64.5654 16.3405 65.483 16.3405C66.4007 16.3405 67.017 15.3982 67.017 14.2256C67.017 13.0306 66.4131 12.1368 65.4955 12.1368ZM78.1546 11.3041L76.318 17.1745H75.1215L74.3607 14.6252C74.1716 14.0016 74.0141 13.3688 73.8888 12.7294H73.8639C73.768 13.3692 73.5863 14.0102 73.3933 14.6252L72.5839 17.1745H71.3749L69.6467 11.3041H70.9877L71.6526 14.0949C71.8095 14.7596 71.9415 15.387 72.051 15.9795H72.0759C72.1718 15.4853 72.3287 14.8679 72.559 14.1073L73.3933 11.3053H74.4566L75.2547 14.0476C75.4477 14.7123 75.6046 15.3646 75.7266 15.9807H75.7615C75.8461 15.377 75.9794 14.736 76.1599 14.0476L76.8734 11.3053L78.1546 11.3041ZM84.9156 17.1745H83.6107V13.8036C83.6107 12.7655 83.2123 12.2451 82.4266 12.2451C81.6534 12.2451 81.1217 12.9098 81.1217 13.6829V17.1745H79.8168V12.982C79.8168 12.463 79.8044 11.9065 79.7683 11.3028H80.9163L80.9773 12.209H81.0134C81.3645 11.5817 82.0767 11.1833 82.8748 11.1833C84.1075 11.1833 84.9168 12.1256 84.9168 13.6592L84.9156 17.1745ZM88.514 17.1745H87.2078V8.61035H88.514V17.1745ZM93.2716 17.3077C91.557 17.3077 90.4439 16.0268 90.4439 14.2878C90.4439 12.4754 91.5795 11.1833 93.3674 11.1833C95.0596 11.1833 96.1951 12.4032 96.1951 14.192C96.1964 16.0268 95.0235 17.3077 93.2716 17.3077ZM93.3201 12.1368C92.3776 12.1368 91.7737 13.0181 91.7737 14.2505C91.7737 15.4592 92.3913 16.3405 93.3064 16.3405C94.2253 16.3405 94.8404 15.3982 94.8404 14.2256C94.8417 13.0306 94.239 12.1368 93.3201 12.1368ZM101.34 17.1745L101.245 16.4986H101.21C100.812 17.0425 100.231 17.3077 99.4934 17.3077C98.4413 17.3077 97.6942 16.5708 97.6942 15.5799C97.6942 14.131 98.9506 13.3816 101.126 13.3816V13.2733C101.126 12.5003 100.716 12.1132 99.9068 12.1132C99.3278 12.1132 98.8198 12.2588 98.3728 12.5489L98.1076 11.6912C98.6505 11.3526 99.3278 11.1833 100.123 11.1833C101.657 11.1833 102.432 11.9924 102.432 13.6119V15.7741C102.432 16.3666 102.458 16.826 102.517 17.1757L101.34 17.1745ZM101.161 14.2505C99.7113 14.2505 98.9842 14.6015 98.9842 15.4343C98.9842 16.0504 99.359 16.3517 99.8794 16.3517C100.543 16.3517 101.161 15.8451 101.161 15.1567V14.2505ZM108.768 17.1745L108.707 16.2322H108.671C108.296 16.9442 107.666 17.3077 106.786 17.3077C105.37 17.3077 104.322 16.0629 104.322 14.3115C104.322 12.4754 105.409 11.1821 106.893 11.1821C107.679 11.1821 108.235 11.4472 108.549 11.98H108.575V8.61035H109.881V15.5924C109.881 16.16 109.895 16.6915 109.93 17.1745H108.768ZM108.575 13.7202C108.575 12.8986 108.031 12.1978 107.201 12.1978C106.233 12.1978 105.642 13.0555 105.642 14.2629C105.642 15.4467 106.256 16.2571 107.175 16.2571C107.995 16.2571 108.575 15.5438 108.575 14.6986V13.7202ZM118.163 17.3077C116.448 17.3077 115.336 16.0268 115.336 14.2878C115.336 12.4754 116.472 11.1833 118.26 11.1833C119.952 11.1833 121.088 12.4032 121.088 14.192C121.089 16.0268 119.917 17.3077 118.163 17.3077ZM118.211 12.1368C117.27 12.1368 116.666 13.0181 116.666 14.2505C116.666 15.4592 117.282 16.3405 118.199 16.3405C119.118 16.3405 119.733 15.3982 119.733 14.2256C119.735 13.0306 119.131 12.1368 118.211 12.1368ZM128.105 17.1745H126.799V13.8036C126.799 12.7655 126.4 12.2451 125.615 12.2451C124.842 12.2451 124.311 12.9098 124.311 13.6829V17.1745H123.005V12.982C123.005 12.463 122.993 11.9065 122.956 11.3028H124.104L124.165 12.209H124.202C124.551 11.5817 125.265 11.1821 126.062 11.1821C127.294 11.1821 128.105 12.1244 128.105 13.658V17.1745ZM136.884 12.2825H135.449V15.133C135.449 15.8588 135.7 16.221 136.208 16.221C136.439 16.221 136.632 16.1961 136.787 16.16L136.823 17.1508C136.571 17.2479 136.232 17.2965 135.811 17.2965C134.783 17.2965 134.167 16.7289 134.167 15.2426V12.2825H133.311V11.3041H134.167V10.2286L135.449 9.84145V11.3028H136.884V12.2825ZM143.792 17.1745H142.489V13.8285C142.489 12.7779 142.091 12.2464 141.304 12.2464C140.628 12.2464 139.998 12.7057 139.998 13.6356V17.1745H138.695V8.61035H139.998V12.1368H140.024C140.435 11.497 141.031 11.1821 141.79 11.1821C143.033 11.1821 143.792 12.148 143.792 13.6829V17.1745ZM150.869 14.553H146.954C146.978 15.6646 147.714 16.2919 148.804 16.2919C149.383 16.2919 149.916 16.1948 150.386 16.0144L150.589 16.9206C150.034 17.162 149.38 17.2828 148.62 17.2828C146.783 17.2828 145.696 16.1226 145.696 14.3239C145.696 12.524 146.809 11.1709 148.473 11.1709C149.973 11.1709 150.914 12.2825 150.914 13.9617C150.923 14.1599 150.908 14.3583 150.869 14.553ZM149.673 13.6231C149.673 12.7169 149.216 12.0771 148.382 12.0771C147.632 12.0771 147.039 12.7294 146.955 13.6231H149.673Z" fill="white"/>
<defs>
<linearGradient id="paint0_linear_6802_40267" x1="123.215" y1="50.3631" x2="123.215" y2="-129.16" gradientUnits="userSpaceOnUse">
<stop stop-color="#1A1A1A" stop-opacity="0.1"/>
<stop offset="0.123" stop-color="#212121" stop-opacity="0.151"/>
<stop offset="0.308" stop-color="#353535" stop-opacity="0.227"/>
<stop offset="0.532" stop-color="#575757" stop-opacity="0.318"/>
<stop offset="0.783" stop-color="#858585" stop-opacity="0.421"/>
<stop offset="1" stop-color="#B3B3B3" stop-opacity="0.51"/>
</linearGradient>
</defs>
</svg>
