<svg width="168" height="50" viewBox="0 0 168 50" fill="none" xmlns="http://www.w3.org/2000/svg">
<path d="M161.735 49.7646H6.22057C2.73705 49.7646 0 47.0275 0 43.544V6.22057C0 2.73705 2.73705 0 6.22057 0H161.735C165.218 0 167.955 2.73705 167.955 6.22057V43.544C167.955 47.0275 165.218 49.7646 161.735 49.7646Z" fill="#1A2921"/>
<path d="M161.735 0.995291C164.596 0.995291 166.96 3.35911 166.96 6.22057V43.544C166.96 46.4055 164.596 48.7693 161.735 48.7693H6.22057C3.35911 48.7693 0.995291 46.4055 0.995291 43.544V6.22057C0.995291 3.35911 3.35911 0.995291 6.22057 0.995291H161.735ZM161.735 0H6.22057C2.73705 0 0 2.86146 0 6.22057V43.544C0 47.0275 2.73705 49.7646 6.22057 49.7646H161.735C165.218 49.7646 167.955 47.0275 167.955 43.544V6.22057C167.955 2.86146 165.218 0 161.735 0Z" fill="#A6A6A6"/>
<path d="M58.9725 12.6896C58.9725 13.6849 58.7237 14.5557 58.1016 15.1778C57.3551 15.9243 56.4843 16.2975 55.3646 16.2975C54.2449 16.2975 53.374 15.9243 52.6275 15.1778C51.881 14.4313 51.5078 13.5604 51.5078 12.4407C51.5078 11.321 51.881 10.4502 52.6275 9.70369C53.374 8.95722 54.2449 8.58398 55.3646 8.58398C55.8622 8.58398 56.3599 8.7084 56.8575 8.95722C57.3551 9.20604 57.7284 9.45486 57.9772 9.8281L57.3551 10.4502C56.8575 9.8281 56.2354 9.57928 55.3646 9.57928C54.6181 9.57928 53.8716 9.8281 53.374 10.4502C52.7519 10.9478 52.5031 11.6943 52.5031 12.5651C52.5031 13.436 52.7519 14.1825 53.374 14.6801C53.996 15.1778 54.6181 15.551 55.3646 15.551C56.2354 15.551 56.8575 15.3022 57.4796 14.6801C57.8528 14.3069 58.1016 13.8093 58.1016 13.1872H55.3646V12.1919H58.9725V12.6896ZM64.6954 9.57928H61.3363V11.9431H64.4466V12.814H61.3363V15.1778H64.6954V16.1731H60.341V8.7084H64.6954V9.57928ZM68.801 16.1731H67.8057V9.57928H65.6907V8.7084H70.916V9.57928H68.801V16.1731ZM74.5239 16.1731V8.7084H75.5192V16.1731H74.5239ZM79.7492 16.1731H78.7539V9.57928H76.6389V8.7084H81.7398V9.57928H79.6248V16.1731H79.7492ZM91.5683 15.1778C90.8218 15.9243 89.9509 16.2975 88.8312 16.2975C87.7115 16.2975 86.8406 15.9243 86.0942 15.1778C85.3477 14.4313 84.9745 13.5604 84.9745 12.4407C84.9745 11.321 85.3477 10.4502 86.0942 9.70369C86.8406 8.95722 87.7115 8.58398 88.8312 8.58398C89.9509 8.58398 90.8218 8.95722 91.5683 9.70369C92.3147 10.4502 92.688 11.321 92.688 12.4407C92.688 13.5604 92.3147 14.4313 91.5683 15.1778ZM86.8406 14.5557C87.3383 15.0534 88.0848 15.4266 88.8312 15.4266C89.5777 15.4266 90.3242 15.1778 90.8218 14.5557C91.3195 14.0581 91.6927 13.3116 91.6927 12.4407C91.6927 11.5699 91.4439 10.8234 90.8218 10.3257C90.3242 9.8281 89.5777 9.45486 88.8312 9.45486C88.0848 9.45486 87.3383 9.70369 86.8406 10.3257C86.343 10.8234 85.9698 11.5699 85.9698 12.4407C85.9698 13.3116 86.2186 14.0581 86.8406 14.5557ZM94.0565 16.1731V8.7084H95.1762L98.7841 14.5557V8.7084H99.7794V16.1731H98.7841L94.9274 10.0769V16.1731H94.0565Z" fill="white" stroke="white" stroke-width="1.18519" stroke-miterlimit="10"/>
<path d="M84.7239 27.1217C81.738 27.1217 79.3742 29.3612 79.3742 32.4714C79.3742 35.4573 81.738 37.8211 84.7239 37.8211C87.7098 37.8211 90.0736 35.5817 90.0736 32.4714C90.0736 29.2367 87.7098 27.1217 84.7239 27.1217ZM84.7239 35.5817C83.1065 35.5817 81.738 34.2132 81.738 32.347C81.738 30.4809 83.1065 29.1123 84.7239 29.1123C86.3412 29.1123 87.7098 30.3564 87.7098 32.347C87.7098 34.2132 86.3412 35.5817 84.7239 35.5817ZM73.1536 27.1217C70.1678 27.1217 67.8039 29.3612 67.8039 32.4714C67.8039 35.4573 70.1678 37.8211 73.1536 37.8211C76.1395 37.8211 78.5033 35.5817 78.5033 32.4714C78.5033 29.2367 76.1395 27.1217 73.1536 27.1217ZM73.1536 35.5817C71.5363 35.5817 70.1678 34.2132 70.1678 32.347C70.1678 30.4809 71.5363 29.1123 73.1536 29.1123C74.771 29.1123 76.1395 30.3564 76.1395 32.347C76.1395 34.2132 74.771 35.5817 73.1536 35.5817ZM59.344 28.7391V30.9785H64.6937C64.5692 32.2226 64.0716 33.2179 63.4495 33.84C62.7031 34.5864 61.459 35.4573 59.344 35.4573C55.9849 35.4573 53.4966 32.8447 53.4966 29.4856C53.4966 26.1265 56.1093 23.5138 59.344 23.5138C61.0857 23.5138 62.4543 24.2603 63.4495 25.1312L65.0669 23.5138C63.6984 22.2697 61.9566 21.2744 59.4684 21.2744C54.9896 21.2744 51.1328 25.0068 51.1328 29.4856C51.1328 33.9644 54.9896 37.6967 59.4684 37.6967C61.9566 37.6967 63.6984 36.9502 65.1913 35.3329C66.6842 33.84 67.1819 31.725 67.1819 30.1076C67.1819 29.61 67.1819 29.1123 67.0575 28.7391H59.344ZM115.827 30.4809C115.329 29.2367 114.085 27.1217 111.348 27.1217C108.611 27.1217 106.371 29.2367 106.371 32.4714C106.371 35.4573 108.611 37.8211 111.597 37.8211C113.961 37.8211 115.453 36.3282 115.951 35.4573L114.209 34.2132C113.587 35.0841 112.841 35.7061 111.597 35.7061C110.353 35.7061 109.606 35.2085 108.984 34.0888L116.076 31.1029L115.827 30.4809ZM108.611 32.2226C108.611 30.232 110.228 29.1123 111.348 29.1123C112.219 29.1123 113.09 29.61 113.339 30.232L108.611 32.2226ZM102.764 37.3235H105.127V21.7721H102.764V37.3235ZM99.0312 28.2415C98.4091 27.6194 97.4139 26.9973 96.1697 26.9973C93.5571 26.9973 91.0689 29.3612 91.0689 32.347C91.0689 35.3329 93.4327 37.5723 96.1697 37.5723C97.4139 37.5723 98.4091 36.9502 98.9068 36.3282H99.0312V37.0747C99.0312 39.0652 97.9115 40.1849 96.1697 40.1849C94.8012 40.1849 93.8059 39.1897 93.5571 38.3188L91.5665 39.1897C92.1886 40.5582 93.6815 42.2999 96.2942 42.2999C99.0312 42.2999 101.271 40.6826 101.271 36.8258V27.3706H99.0312V28.2415ZM96.2942 35.5817C94.6768 35.5817 93.3083 34.2132 93.3083 32.347C93.3083 30.4809 94.6768 29.1123 96.2942 29.1123C97.9115 29.1123 99.1556 30.4809 99.1556 32.347C99.1556 34.2132 97.9115 35.5817 96.2942 35.5817ZM126.651 21.7721H121.052V37.3235H123.416V31.4761H126.651C129.263 31.4761 131.751 29.61 131.751 26.6241C131.751 23.6382 129.263 21.7721 126.651 21.7721ZM126.775 29.2367H123.416V23.8871H126.775C128.517 23.8871 129.512 25.38 129.512 26.4997C129.388 27.8682 128.392 29.2367 126.775 29.2367ZM141.082 26.9973C139.34 26.9973 137.599 27.7438 136.977 29.3612L139.092 30.232C139.589 29.3612 140.336 29.1123 141.207 29.1123C142.451 29.1123 143.57 29.8588 143.695 31.1029V31.2273C143.322 30.9785 142.326 30.6053 141.331 30.6053C139.092 30.6053 136.852 31.8494 136.852 34.0888C136.852 36.2038 138.718 37.5723 140.709 37.5723C142.326 37.5723 143.073 36.8258 143.695 36.0794H143.819V37.3235H146.059V31.3517C145.81 28.6147 143.695 26.9973 141.082 26.9973ZM140.833 35.5817C140.087 35.5817 138.967 35.2085 138.967 34.2132C138.967 32.9691 140.336 32.5959 141.455 32.5959C142.451 32.5959 142.948 32.8447 143.57 33.0935C143.322 34.5864 142.078 35.5817 140.833 35.5817ZM153.897 27.3706L151.284 34.0888H151.16L148.423 27.3706H145.934L150.04 36.8258L147.676 42.0511H150.04L156.385 27.3706H153.897ZM132.996 37.3235H135.359V21.7721H132.996V37.3235Z" fill="white"/>
<path d="M12.9391 9.33008C12.5658 9.70331 12.4414 10.3254 12.4414 11.0718V38.5668C12.4414 39.3132 12.6902 39.9353 13.0635 40.3085L13.1879 40.4329L28.6149 25.0059V24.7571L12.9391 9.33008Z" fill="url(#paint0_linear_6802_40254)"/>
<path d="M33.5931 30.2312L28.4922 25.1304V24.7571L33.5931 19.6562L33.7175 19.7807L39.8136 23.2642C41.5554 24.2595 41.5554 25.8768 39.8136 26.8721L33.5931 30.2312Z" fill="url(#paint1_linear_6802_40254)"/>
<path d="M33.7142 30.1071L28.4889 24.8818L12.9375 40.4333C13.5596 41.0553 14.4304 41.0553 15.5501 40.5577L33.7142 30.1071Z" fill="url(#paint2_linear_6802_40254)"/>
<path d="M33.7142 19.657L15.5501 9.33085C14.4304 8.70879 13.5596 8.8332 12.9375 9.45526L28.4889 24.8823L33.7142 19.657Z" fill="url(#paint3_linear_6802_40254)"/>
<path opacity="0.2" d="M33.5898 29.9824L15.5501 40.1842C14.5548 40.8062 13.684 40.6818 13.0619 40.1842L12.9375 40.3086L13.0619 40.433C13.684 40.9306 14.5548 41.055 15.5501 40.433L33.5898 29.9824Z" fill="black"/>
<path opacity="0.12" d="M12.9391 40.1844C12.5658 39.8112 12.4414 39.1891 12.4414 38.4427V38.5671C12.4414 39.3136 12.6902 39.9356 13.0635 40.3089V40.1844H12.9391ZM39.8119 26.4992L33.5913 29.9827L33.7158 30.1071L39.8119 26.6236C40.6828 26.1259 41.056 25.5039 41.056 24.8818C41.056 25.5039 40.5584 26.0015 39.8119 26.4992Z" fill="black"/>
<path opacity="0.25" d="M15.5517 9.45495L39.8119 23.2646C40.5584 23.7623 41.056 24.2599 41.056 24.882C41.056 24.2599 40.6828 23.6378 39.8119 23.1402L15.5517 9.33054C13.8099 8.33525 12.4414 9.08171 12.4414 11.0723V11.1967C12.4414 9.33054 13.8099 8.45966 15.5517 9.45495Z" fill="white"/>
<defs>
<linearGradient id="paint0_linear_6802_40254" x1="27.122" y1="10.8355" x2="6.24198" y2="31.7142" gradientUnits="userSpaceOnUse">
<stop stop-color="#00A0FF"/>
<stop offset="0.007" stop-color="#00A1FF"/>
<stop offset="0.26" stop-color="#00BEFF"/>
<stop offset="0.512" stop-color="#00D2FF"/>
<stop offset="0.76" stop-color="#00DFFF"/>
<stop offset="1" stop-color="#00E3FF"/>
</linearGradient>
<linearGradient id="paint1_linear_6802_40254" x1="42.0953" y1="24.8828" x2="11.9915" y2="24.8828" gradientUnits="userSpaceOnUse">
<stop stop-color="#FFE000"/>
<stop offset="0.409" stop-color="#FFBD00"/>
<stop offset="0.775" stop-color="#FFA500"/>
<stop offset="1" stop-color="#FF9C00"/>
</linearGradient>
<linearGradient id="paint2_linear_6802_40254" x1="30.8863" y1="27.7383" x2="2.57279" y2="56.0519" gradientUnits="userSpaceOnUse">
<stop stop-color="#FF3A44"/>
<stop offset="1" stop-color="#C31162"/>
</linearGradient>
<linearGradient id="paint3_linear_6802_40254" x1="9.07701" y1="0.218956" x2="21.7209" y2="12.8629" gradientUnits="userSpaceOnUse">
<stop stop-color="#32A071"/>
<stop offset="0.069" stop-color="#2DA771"/>
<stop offset="0.476" stop-color="#15CF74"/>
<stop offset="0.801" stop-color="#06E775"/>
<stop offset="1" stop-color="#00F076"/>
</linearGradient>
</defs>
</svg>
