<svg width="30" height="30" viewBox="0 0 30 30" fill="none" xmlns="http://www.w3.org/2000/svg">
<rect width="30" height="30" rx="15" fill="white"/>
<path fill-rule="evenodd" clip-rule="evenodd" d="M15.412 9.21104C15.5912 9.13017 15.801 9.16175 15.9484 9.29175L21.4291 14.1251C21.9558 14.5895 21.9558 15.4106 21.4291 15.8751L15.9484 20.7084C15.801 20.8384 15.5912 20.87 15.412 20.7891C15.2329 20.7083 15.1178 20.5299 15.1178 20.3334V17.8339C13.8193 17.8382 12.709 17.8739 11.7009 18.1628C10.6277 18.4703 9.65314 19.0719 8.73203 20.3001C8.6029 20.4723 8.37809 20.5425 8.17392 20.4744C7.96974 20.4064 7.83203 20.2153 7.83203 20.0001C7.83203 16.9209 8.85133 14.9375 10.3765 13.7349C11.7725 12.6341 13.5246 12.2418 15.1178 12.1768V9.66675C15.1178 9.47021 15.2329 9.2919 15.412 9.21104ZM16.1178 10.7744V12.5334C16.1178 12.8824 15.8367 13.1636 15.4904 13.1675C13.9161 13.1848 12.2547 13.5274 10.9957 14.5201C9.9773 15.3231 9.1686 16.5943 8.9151 18.6049C9.6933 17.8922 10.5275 17.4588 11.4254 17.2015C12.6851 16.8405 14.0525 16.8337 15.4838 16.8334C15.8316 16.8333 16.1178 17.1148 16.1178 17.4667V19.2258L20.7677 15.1251C20.8429 15.0587 20.8429 14.9414 20.7677 14.8751L16.1178 10.7744Z" fill="#365327"/>
</svg>
