<svg width="18" height="22" viewBox="0 0 18 22" fill="none" xmlns="http://www.w3.org/2000/svg">
<path fill-rule="evenodd" clip-rule="evenodd" d="M3.74873 8.81607L0.340723 14.7193C0.0422232 15.2361 -0.0387677 15.8503 0.115732 16.4271C0.270232 17.0031 0.647467 17.4951 1.16422 17.7928L3.74873 19.2853C3.75848 19.8696 3.99398 20.4276 4.40798 20.8408C4.82948 21.2631 5.40173 21.5001 5.99873 21.5001H14.9987C15.5957 21.5001 16.168 21.2631 16.5895 20.8408C17.0117 20.4193 17.2487 19.8471 17.2487 19.2501V7.82007C17.2487 7.26957 17.0462 6.73707 16.6802 6.32532L12.1802 1.26282C11.7535 0.782821 11.1415 0.507568 10.4987 0.507568C9.85598 0.507568 9.24397 0.782821 8.81722 1.26282C7.44772 2.80332 5.20522 5.32707 4.31722 6.32532C3.95122 6.73707 3.74873 7.26957 3.74873 7.82007V8.81607ZM5.24873 19.2501V7.82007C5.24873 7.63632 5.31622 7.45932 5.43847 7.32207L9.93847 2.25957C10.0802 2.09982 10.2842 2.00757 10.4987 2.00757C10.7132 2.00757 10.9172 2.09982 11.059 2.25957L15.559 7.32207C15.6812 7.45932 15.7487 7.63632 15.7487 7.82007V19.2501C15.7487 19.4488 15.67 19.6401 15.529 19.7803C15.3887 19.9213 15.1975 20.0001 14.9987 20.0001H5.99873C5.79998 20.0001 5.60873 19.9213 5.46848 19.7803C5.32748 19.6401 5.24873 19.4488 5.24873 19.2501ZM3.74873 11.8161L1.63972 15.4693C1.53997 15.6418 1.51299 15.8466 1.56474 16.0386C1.61649 16.2306 1.74172 16.3948 1.91422 16.4938L3.74873 17.5536V11.8161Z" fill="#365327"/>
<path fill-rule="evenodd" clip-rule="evenodd" d="M10.5 5.75C9.258 5.75 8.25 6.758 8.25 8C8.25 9.242 9.258 10.25 10.5 10.25C11.742 10.25 12.75 9.242 12.75 8C12.75 6.758 11.742 5.75 10.5 5.75ZM10.5 7.25C10.914 7.25 11.25 7.586 11.25 8C11.25 8.414 10.914 8.75 10.5 8.75C10.086 8.75 9.75 8.414 9.75 8C9.75 7.586 10.086 7.25 10.5 7.25Z" fill="#B49D97"/>
</svg>
